<?xml version="1.0" encoding="utf-8"?>
<!-- Generator: Adobe Illustrator 27.9.0, SVG Export Plug-In . SVG Version: 6.00 Build 0)  -->
<svg version="1.1" id="Layer_1" xmlns="http://www.w3.org/2000/svg" xmlns:xlink="http://www.w3.org/1999/xlink" x="0px" y="0px" viewBox="0 0 33 32" style="enable-background:new 0 0 33 32;" xml:space="preserve" aria-hidden="true">
<style type="text/css">
	.st0--mime-mime_aviator32{fill-rule:evenodd;clip-rule:evenodd;fill:url(#SVGID_1_);}
</style>
<linearGradient id="SVGID_1_" gradientUnits="userSpaceOnUse" x1="18.8027" y1="30.4322" x2="12.0093" y2="8.5217" gradientTransform="matrix(1 0 0 -1 0 34)">
	<stop offset="0" style="stop-color:#5264CE"></stop>
	<stop offset="1" style="stop-color:#20295B"></stop>
</linearGradient>
<path class="st0--mime-mime_aviator32" d="M17.471,4.246c-0.163-0.432-0.774-0.432-0.936,0L8.404,25.923c-0.154,0.409,0.255,0.805,0.659,0.638
	l5.966-2.465c1.513-0.625,3.217-0.605,4.715,0.057l5.168,2.282c0.405,0.179,0.826-0.219,0.67-0.633L17.471,4.246z M6.326,14.333
	h4.824l1.737-4.63c0.103-0.275-0.052-0.582-0.342-0.63C12.256,9.025,11.961,9,11.659,9H0.992C0.992,11.946,3.38,14.333,6.326,14.333
	z M10.053,15.331c0.349,0,0.591,0.349,0.468,0.676l-1.458,3.887c-2.674-0.153-4.82-2.276-5.01-4.94
	c0.704,0.244,1.461,0.377,2.248,0.377H10.053z M21.47,9.068c-0.291,0.047-0.448,0.355-0.344,0.631l1.743,4.634h4.79
	c2.946,0,5.333-2.388,5.333-5.333H22.326C22.034,9,21.748,9.023,21.47,9.068z M23.499,16.007c-0.123-0.327,0.119-0.676,0.468-0.676
	h3.716c0.788,0,1.544-0.133,2.248-0.377c-0.189,2.651-2.315,4.766-4.971,4.937L23.499,16.007z"></path>
</svg>
