<?xml version="1.0" encoding="utf-8"?>
<!-- Generator: Adobe Illustrator 27.9.0, SVG Export Plug-In . SVG Version: 6.00 Build 0)  -->
<svg version="1.1" id="Layer_1" xmlns="http://www.w3.org/2000/svg" xmlns:xlink="http://www.w3.org/1999/xlink" x="0px" y="0px"
	 viewBox="0 0 18 18" style="enable-background:new 0 0 18 18;" xml:space="preserve">
<style type="text/css">
	.st0--mime-mime_aviator_chatbot18{fill:#404C7D;}
	.st1--mime-mime_aviator_chatbot18{fill:#828BC1;}
	.st2--mime-mime_aviator_chatbot18{fill:#FFFFFF;}
</style>
<path class="st0--mime-mime_aviator_chatbot18" d="M0,8c0-1.105,0.895-2,2-2h1v6H2c-1.105,0-2-0.895-2-2V8z"/>
<path class="st0--mime-mime_aviator_chatbot18" d="M18,8c0-1.105-0.895-2-2-2h-1v6h1c1.105,0,2-0.895,2-2V8z"/>
<ellipse class="st0--mime-mime_aviator_chatbot18" cx="9" cy="6.5" rx="7" ry="6.5"/>
<path class="st0--mime-mime_aviator_chatbot18" d="M2,6h14v4c0,3.866-3.134,7-7,7c-3.866,0-7-3.134-7-7V6z"/>
<path class="st1--mime-mime_aviator_chatbot18" d="M3,7.933C3,6.313,4.313,5,5.933,5h6.133C13.687,5,15,6.313,15,7.933V10c0,3.314-2.686,6-6,6
	c-3.314,0-6-2.686-6-6V7.933z"/>
<path class="st2--mime-mime_aviator_chatbot18" d="M3,8c0-1.657,1.382-3,3.086-3h5.828C13.618,5,15,6.343,15,8c0,1,0,2,0,2h-2.914
	c-1.28,0-2.378-0.758-2.845-1.837C9.199,8.066,9.105,8,9,8C8.895,8,8.801,8.066,8.76,8.163C8.292,9.242,7.194,10,5.914,10H3
	C3,10,3,9,3,8z"/>
</svg>
